<svg width="1366" height="768" viewBox="0 0 1366 768" fill="none" xmlns="http://www.w3.org/2000/svg">
<path d="M1846.14 -393.144C1876.81 3.31629 1221.01 380.942 824.546 411.61C428.085 442.277 978.905 13.3049 410.43 -282.088C-158.045 -577.48 676.297 -1024.8 1072.76 -1055.47C1469.22 -1086.14 1815.47 -789.605 1846.14 -393.144Z" fill="#58BF88"/>
<path d="M1757.69 -297.535C1788.35 98.9262 1491.82 445.182 1095.36 475.849C698.9 506.517 1212.55 -88.3902 600.546 -128.39C-11.4541 -168.39 587.843 -929.194 984.303 -959.862C1380.76 -990.529 1727.02 -693.995 1757.69 -297.535Z" fill="#9542D8"/>
<path d="M-256.497 510.535C-190.829 356.431 127.687 342.917 281.797 408.589C435.908 474.261 146.632 527.385 301.587 748.354C456.543 969.324 57.7539 974.146 -96.3567 908.474C-250.467 842.802 -322.165 664.638 -256.497 510.535Z" fill="#58BF88"/>
<path d="M-204.844 492.019C-139.176 337.915 38.9891 266.227 193.1 331.899C347.21 397.571 39.5445 519.929 260.448 653.939C481.351 787.948 109.406 955.63 -44.7043 889.958C-198.815 824.286 -270.512 646.122 -204.844 492.019Z" fill="#9542D8"/>
</svg>
